<svg width="76" height="76" viewBox="0 0 76 76" fill="none" xmlns="http://www.w3.org/2000/svg">
<path d="M35.7931 73H7.65166C6.70955 73 6.2385 71.8585 6.90009 71.1896L25.0277 52.8893C25.2288 52.6875 25.4988 52.576 25.7793 52.576H36.0101C43.9175 52.576 50.6075 46.3697 50.8457 38.4433C51.0891 30.2036 44.4785 23.4293 36.3224 23.4293H25.3611V36.9801C25.3611 37.5641 24.8848 38.0419 24.3026 38.0419H6.05855C5.47635 38.0419 5 37.5641 5 36.9801V4.06181C5 3.47782 5.47635 3 6.05855 3H36.3224C55.7414 3 71.5085 18.9962 71.2121 38.5442C70.921 57.7471 54.9422 73 35.7931 73Z" fill="#a3a3ac"/>
</svg>
